<svg width="98" height="98" viewBox="0 0 98 98" fill="none" xmlns="http://www.w3.org/2000/svg">
<rect width="98" height="98" fill="url(#paint0_linear_299_484)"/>
<path d="M67.2904 79.3054C65.2672 80.024 62.4492 80.6707 58.8364 81.2455C55.2958 81.7485 51.0688 82 46.1554 82C39.9414 82 34.6305 81.2096 30.2229 79.6287C25.8875 77.9761 22.5999 75.2096 20.3599 71.3293C18.12 67.3772 17 61.9162 17 54.9461C17 45.4611 19.1677 38.5988 23.5031 34.3593C27.9107 30.1198 34.7028 28 43.8793 28C50.4547 28 55.621 28.9341 59.3783 30.8024C63.2079 32.6707 65.9175 35.3293 67.5072 38.7784C69.1691 42.1557 70 46.1796 70 50.8503C70 52.2156 69.9277 53.6886 69.7832 55.2695C69.711 56.8503 69.5303 58.3952 69.2413 59.9042L68.8078 60.3353H33.1493C33.6551 63.497 35.1363 65.5808 37.593 66.5868C40.122 67.5928 44.2045 68.0958 49.8405 68.0958C53.5978 68.0958 56.7048 68.024 59.1616 67.8802C61.6905 67.6647 64.2556 67.3772 66.8568 67.018L67.2904 67.3413V79.3054ZM54.9346 49.018C54.9346 47.2934 54.6455 45.8204 54.0675 44.5988C53.5617 43.3054 52.514 42.3353 50.9243 41.6886C49.3347 40.9701 46.9864 40.6108 43.8793 40.6108C39.3272 40.6108 36.3286 41.4012 34.8834 42.982C33.5106 44.491 32.8241 46.503 32.8241 49.018H54.9346Z" fill="#FAFAFA"/>
<path fill-rule="evenodd" clip-rule="evenodd" d="M73.513 31.5867L74.813 27.5699C75.0772 26.753 75.7221 26.1173 76.5418 25.8666L80.5781 24.6253C81.1369 24.4546 81.1414 23.6664 80.5871 23.4868L76.5692 22.1867C75.7537 21.9223 75.118 21.2777 74.866 20.4576L73.6262 16.4211C73.4556 15.8639 72.6674 15.8578 72.4876 16.4138L71.1875 20.4305C70.9234 21.2458 70.2785 21.8815 69.4586 22.1338L65.4224 23.3736C64.8637 23.5456 64.8577 24.3324 65.4134 24.512L69.4314 25.8121C70.2468 26.0765 70.8826 26.7228 71.1346 27.5428L72.3744 31.5774C72.545 32.1363 73.3331 32.1423 73.513 31.5867Z" fill="#EC796B"/>
<defs>
<linearGradient id="paint0_linear_299_484" x1="-15" y1="129" x2="104.5" y2="-3.99999" gradientUnits="userSpaceOnUse">
<stop stop-color="#9A5583"/>
<stop offset="0.525" stop-color="#35269A"/>
<stop offset="1" stop-color="#181972"/>
</linearGradient>
</defs>
</svg>
